<?xml version="1.0" encoding="utf-8"?>
<!-- Generator: Adobe Illustrator 21.0.2, SVG Export Plug-In . SVG Version: 6.00 Build 0)  -->
<!DOCTYPE svg PUBLIC "-//W3C//DTD SVG 1.1//EN" "http://www.w3.org/Graphics/SVG/1.1/DTD/svg11.dtd">
<svg version="1.1" id="Layer_1" xmlns="http://www.w3.org/2000/svg" xmlns:xlink="http://www.w3.org/1999/xlink" x="0px" y="0px"
	 viewBox="0 0 295 79.2" style="enable-background:new 0 0 295 79.2;" xml:space="preserve">
<style type="text/css">
	.st0{fill:#FFFFFF;}
	.st1{fill:#E12027;}
</style>
<g>
	<g>
		<path class="st0" d="M146,54.9c0.3-1.5,1.6-8.3,1.9-10c-1.7,0-17.5,0-19.6,0c0.1-0.7,0.8-4.2,1-5.2c2.1,0,11.9,0,14.1,0
			c0.2-1,1.7-9,1.9-9.9c-1.9,0-11.9,0-14.1,0c0.1-0.7,0.9-4.7,1-5.3c2.3,0,17.6,0,19.6,0c0.2-1,1.7-8.9,1.9-10c-2.3,0-28.3,0-30.8,0
			c-0.5,2.6-7.4,38.1-7.8,40.4C116.5,54.9,144.3,54.9,146,54.9L146,54.9z"/>
		<path class="st0" d="M96.2,24.4L94.5,33h6.9c2.4,0,5-1.9,5.4-4.2c0.5-2.4-1.2-4.3-3.7-4.3H96.2L96.2,24.4z M81.1,14.5h8.7l15.8,0
			c8.2,0,14.2,6.1,12.6,14.2c-1.1,5.9-5.8,10.3-11.3,12.2c0.8,1.6,12.2,23.3,12.9,24.6H106c-0.6-1.2-10.9-21.3-11.7-22.8h-1.7
			l-2.3,12.1H79l5.9-30.5h-8.7L81.1,14.5L81.1,14.5z"/>
		<path class="st0" d="M198.6,40.6h10.5c-1.2-5.9-2-10.5-2.4-12.3C205.7,29.7,202.2,35,198.6,40.6L198.6,40.6z M240.2,24.5l-1.6,8.4
			h5.3c2.4,0,4.7-1.8,5.2-4.2c0.5-2.4-1-4.2-3.6-4.2H240.2L240.2,24.5z M163.5,54.9h-15.1l7.8-40.4h15c13.1,0,20.9,9,18.7,20.2
			l-0.1,0.3c6.7-10,13.5-20.1,13.7-20.5h11.6c0.1,0.5,6,22.3,9.1,33.6l4.6-23.8h-9l4.8-9.9h8.7l14.4,0H295c-0.2,1.2-4.6,8.7-4.8,10
			h-12.5l-5.9,30.4h-11.4l5.9-30.4h-5.7c0.2,1.3,0.2,2.7-0.1,4.2c-1.4,7.4-9.4,14.1-18.1,14.1h-5.6l-2.3,12.1h-8.2H223h-9.9
			c-0.2-0.6-0.5-2.1-1.3-4.8h-19.3c-0.7,1.3-2.9,4.5-3,4.8h-12.9c0.1-0.2,1.6-2.3,3.8-5.6C175.5,52.9,169.5,54.9,163.5,54.9
			L163.5,54.9z M169.1,24.4h-3.5l-4,20.5h3.7c5.9,0,12.3-4.4,13.4-10.2C179.9,28.7,175.6,24.4,169.1,24.4L169.1,24.4z"/>
	</g>
</g>
<path class="st1" d="M20,70c18.5,14,41.5,11.8,51.5-5s3-41.8-15.5-55.8s-41.5-11.8-51.5,5S1.5,56,20,70z"/>
<path class="st0" d="M34.8,24.4L33.1,33H40c2.4,0,5-1.9,5.4-4.2c0.5-2.4-1.2-4.3-3.7-4.3H34.8L34.8,24.4z M19.7,14.5h8.7l15.8,0
	c8.2,0,14.2,6.1,12.6,14.2C55.6,34.6,51,39.1,45.4,41c0.8,1.6,12.2,23.3,12.9,24.6H44.6c-0.6-1.2-10.9-21.3-11.7-22.8h-1.7
	l-2.3,12.1H17.7l5.9-30.5h-8.7L19.7,14.5L19.7,14.5z"/>
</svg>
